<svg width="200" height="200" viewBox="0 0 200 200" fill="none" xmlns="http://www.w3.org/2000/svg">
<g clip-path="url(#clip0_55_66)">
<path d="M199.28 161.966C198.373 152.88 196.622 143.509 193.804 133.997C180.251 88.2812 138.76 56.218 91.6577 54.2147V20.8423C91.6577 13.4189 82.6824 9.70128 77.4333 14.9504L2.44096 89.9427C-0.813003 93.1967 -0.813003 98.4727 2.44096 101.727L77.4333 176.719C82.6824 181.968 91.6577 178.251 91.6577 170.827V127.978C110.489 126.094 132.229 130.758 153.11 146.863C164.661 155.772 175.204 167.824 184.487 183.422C188.817 190.697 199.98 187.626 199.98 179.16C199.982 178.785 199.982 178.785 199.99 178.096C200.044 172.908 199.896 168.148 199.28 161.966ZM163.288 133.667C137.294 113.619 109.873 108.54 86.2707 111.842C83.9858 112.162 82.3016 112.497 81.2876 112.753C77.5865 113.686 74.9926 117.015 74.9926 120.833V150.711L20.1165 95.8347L74.9926 40.959V62.5049C74.9926 67.2193 78.9004 70.9951 83.6124 70.8326C83.9495 70.8209 84.2182 70.815 84.9131 70.8029C127.401 69.8846 165.733 97.9376 177.826 138.732C178.932 142.466 179.855 146.18 180.609 149.859C175.127 143.726 169.344 138.337 163.288 133.667Z" fill="black"/>
</g>
<defs>
<clipPath id="clip0_55_66">
<rect width="200" height="200" fill="white"/>
</clipPath>
</defs>
</svg>
