<svg version="1.1" viewBox="4.3999999999999995 4.5 41.099999999999994 41" xmlns:xlink="http://www.w3.org/1999/xlink" xmlns="http://www.w3.org/2000/svg" style="max-height: 500px" width="41.099999999999994" height="41">
<g id="surface1">
<path d="M 25 45.3125 C 13.78125 45.3125 4.6875 36.21875 4.6875 25 C 4.6875 13.78125 13.78125 4.6875 25 4.6875 C 36.21875 4.6875 45.3125 13.78125 45.3125 25 C 45.3125 36.21875 36.21875 45.3125 25 45.3125 Z M 25 9.375 C 16.371094 9.375 9.375 16.371094 9.375 25 C 9.375 33.628906 16.371094 40.625 25 40.625 C 33.628906 40.625 40.625 33.628906 40.625 25 C 40.625 16.371094 33.628906 9.375 25 9.375 Z M 32.089844 30.523438 L 30.503906 32.109375 C 30.214844 32.398438 29.742188 32.398438 29.449219 32.109375 L 24.964844 27.625 L 20.480469 32.109375 C 20.1875 32.398438 19.71875 32.398438 19.425781 32.109375 L 17.84375 30.523438 C 17.550781 30.234375 17.550781 29.761719 17.84375 29.46875 L 22.328125 24.984375 L 17.84375 20.5 C 17.550781 20.210938 17.550781 19.738281 17.84375 19.445312 L 19.425781 17.863281 C 19.71875 17.570312 20.1875 17.570312 20.480469 17.863281 L 24.964844 22.347656 L 29.449219 17.863281 C 29.742188 17.570312 30.214844 17.570312 30.503906 17.863281 L 32.089844 19.445312 C 32.378906 19.738281 32.378906 20.210938 32.089844 20.5 L 27.601562 24.984375 L 32.089844 29.46875 C 32.378906 29.761719 32.378906 30.234375 32.089844 30.523438 Z M 32.089844 30.523438" style="stroke:none;fill-rule:nonzero;fill:rgb(0%,0%,0%);fill-opacity:1;"/>
</g>
</svg>