<svg width="200" height="200" viewBox="0 0 200 200" fill="none" xmlns="http://www.w3.org/2000/svg">
<path d="M100.244 198.601C45.6517 198.601 1.3999 154.349 1.3999 99.7569C1.3999 45.1644 45.6517 0.912598 100.244 0.912598C154.837 0.912598 199.088 45.1644 199.088 99.7569C199.088 154.349 154.837 198.601 100.244 198.601ZM100.244 23.7228C58.2544 23.7228 24.2101 57.7671 24.2101 99.7569C24.2101 141.747 58.2544 175.791 100.244 175.791C142.234 175.791 176.278 141.747 176.278 99.7569C176.278 57.7671 142.234 23.7228 100.244 23.7228ZM134.745 126.635L127.027 134.352C125.621 135.759 123.321 135.759 121.895 134.352L100.073 112.531L78.2513 134.352C76.8257 135.759 74.5447 135.759 73.119 134.352L65.4206 126.635C63.9949 125.228 63.9949 122.928 65.4206 121.503L87.2424 99.6808L65.4206 77.8591C63.9949 76.4524 63.9949 74.1524 65.4206 72.7268L73.119 65.0283C74.5447 63.6027 76.8257 63.6027 78.2513 65.0283L100.073 86.8501L121.895 65.0283C123.321 63.6027 125.621 63.6027 127.027 65.0283L134.745 72.7268C136.151 74.1524 136.151 76.4524 134.745 77.8591L112.904 99.6808L134.745 121.503C136.151 122.928 136.151 125.228 134.745 126.635Z" fill="black"/>
</svg>
