<svg width="200" height="200" viewBox="0 0 200 200" fill="none" xmlns="http://www.w3.org/2000/svg">
<g clip-path="url(#clip0_55_73)">
<path d="M100 0C45 0 0 45 0 100C0 155 45 200 100 200C155 200 200 155 200 100C200 45 155 0 100 0ZM100 179C57 179 21 144 21 100C21 57 56 21 100 21C144 21 179 56 179 100C179 143 143 179 100 179Z" fill="black"/>
<path d="M80 112L58 90L44 104L80 140L151 69L137 55L80 112Z" fill="black"/>
</g>
<defs>
<clipPath id="clip0_55_73">
<rect width="200" height="200" fill="white"/>
</clipPath>
</defs>
</svg>
