<?xml version="1.0" encoding="UTF-8"?>
<svg xmlns="http://www.w3.org/2000/svg" xmlns:xlink="http://www.w3.org/1999/xlink" width="50px" height="50px" viewBox="0 0 50 50" version="1.1">
<g id="surface1">
<path style=" stroke:none;fill-rule:nonzero;fill:rgb(0%,0%,0%);fill-opacity:1;" d="M 22.117188 -0.0585938 C 18.351562 -0.0585938 15.324219 3.066406 15.324219 6.851562 L 15.324219 7.691406 L 7.691406 7.691406 C 6.632812 7.691406 5.769531 8.554688 5.769531 9.617188 L 5.769531 11.539062 L 3.847656 11.539062 L 3.847656 15.382812 L 7.691406 15.382812 L 7.691406 44.230469 C 7.691406 47.394531 10.300781 50 13.460938 50 L 36.539062 50 C 39.699219 50 42.308594 47.394531 42.308594 44.230469 L 42.308594 15.382812 L 46.152344 15.382812 L 46.152344 11.539062 L 44.230469 11.539062 L 44.230469 9.617188 C 44.230469 8.554688 43.367188 7.691406 42.308594 7.691406 L 34.675781 7.691406 L 34.675781 6.851562 C 34.675781 3.066406 31.648438 -0.0585938 27.882812 -0.0585938 Z M 22.117188 3.90625 L 27.882812 3.90625 C 29.433594 3.90625 30.710938 5.167969 30.710938 6.851562 L 30.710938 7.691406 L 19.289062 7.691406 L 19.289062 6.851562 C 19.289062 5.167969 20.566406 3.90625 22.117188 3.90625 Z M 11.539062 15.382812 L 21.394531 15.382812 C 21.632812 15.40625 21.867188 15.445312 22.117188 15.445312 L 27.882812 15.445312 C 28.132812 15.445312 28.367188 15.40625 28.605469 15.382812 L 38.460938 15.382812 L 38.460938 44.230469 C 38.460938 45.3125 37.621094 46.152344 36.539062 46.152344 L 13.460938 46.152344 C 12.378906 46.152344 11.539062 45.3125 11.539062 44.230469 Z M 15.382812 19.230469 L 15.382812 42.308594 L 19.230469 42.308594 L 19.230469 19.230469 Z M 23.078125 19.230469 L 23.078125 42.308594 L 26.921875 42.308594 L 26.921875 19.230469 Z M 30.769531 19.230469 L 30.769531 42.308594 L 34.617188 42.308594 L 34.617188 19.230469 Z M 30.769531 19.230469 "/>
</g>
</svg>
