<svg width="200" height="200" viewBox="0 0 200 200" fill="none" xmlns="http://www.w3.org/2000/svg">
<g clip-path="url(#clip0_55_93)">
<path d="M88.4688 -0.234375C73.4062 -0.234375 61.2969 12.2656 61.2969 27.4062V30.7656H30.7656C26.5312 30.7656 23.0781 34.2188 23.0781 38.4688V46.1562H15.3906V61.5312H30.7656V176.922C30.7656 189.578 41.2031 200 53.8438 200H146.156C158.797 200 169.234 189.578 169.234 176.922V61.5312H184.609V46.1562H176.922V38.4688C176.922 34.2188 173.469 30.7656 169.234 30.7656H138.703V27.4062C138.703 12.2656 126.594 -0.234375 111.531 -0.234375H88.4688ZM88.4688 15.625H111.531C117.734 15.625 122.844 20.6719 122.844 27.4062V30.7656H77.1562V27.4062C77.1562 20.6719 82.2656 15.625 88.4688 15.625ZM46.1562 61.5312H85.5781C86.5312 61.625 87.4688 61.7812 88.4688 61.7812H111.531C112.531 61.7812 113.469 61.625 114.422 61.5312H153.844V176.922C153.844 181.25 150.484 184.609 146.156 184.609H53.8438C49.5156 184.609 46.1562 181.25 46.1562 176.922V61.5312ZM61.5312 76.9219V169.234H76.9219V76.9219H61.5312ZM92.3125 76.9219V169.234H107.688V76.9219H92.3125ZM123.078 76.9219V169.234H138.469V76.9219H123.078Z" fill="black"/>
</g>
<defs>
<clipPath id="clip0_55_93">
<rect width="200" height="200" fill="white"/>
</clipPath>
</defs>
</svg>
