<svg width="200" height="200" viewBox="0 0 200 200" fill="none" xmlns="http://www.w3.org/2000/svg">
<path d="M99.9979 132.715L133.067 99.7335M133.067 99.7335L99.9979 66.7519M133.067 99.7335H11.8145M11.8145 47.4909V46.9652C11.8145 34.6509 11.8145 28.4892 14.2173 23.7858C16.3309 19.6485 19.701 16.2872 23.8493 14.1793C28.5651 11.7827 34.7431 11.7827 47.09 11.7827H152.91C165.257 11.7827 171.422 11.7827 176.138 14.1793C180.286 16.2872 183.667 19.6485 185.781 23.7858C188.181 28.4846 188.181 34.6388 188.181 46.929V152.543C188.181 164.834 188.181 170.979 185.781 175.678C183.667 179.815 180.286 183.182 176.138 185.29C171.426 187.684 165.265 187.684 152.942 187.684H47.0538C34.731 187.684 28.5605 187.684 23.8493 185.29C19.701 183.182 16.3309 179.812 14.2173 175.675C11.8145 170.971 11.8145 164.818 11.8145 152.504V151.954" stroke="black" stroke-width="17.96" stroke-linecap="round" stroke-linejoin="round"/>
</svg>
