<svg width="204" height="201" viewBox="0 0 204 201" fill="none" xmlns="http://www.w3.org/2000/svg">
<g clip-path="url(#clip0_58_139)">
<path d="M92.4954 188.837H38.7962C33.2268 188.837 30.4421 188.837 28.3149 187.754C26.4438 186.8 24.9225 185.279 23.9691 183.408C22.8853 181.281 22.8853 178.496 22.8853 172.927V155.863C22.8853 149.543 22.8853 146.381 23.3624 143.746C25.5789 131.503 35.1607 121.921 47.4038 119.705C48.1687 119.566 48.9761 119.468 49.8915 119.398C52.1294 119.227 53.2483 119.142 54.743 119.253C56.2965 119.369 57.1653 119.523 58.6646 119.945C60.107 120.352 62.7052 121.529 67.9014 123.883C72.5027 125.968 77.4157 127.485 82.5511 128.346M180.727 131.198C180.049 131.239 179.366 131.26 178.68 131.26C168.492 131.26 159.199 126.709 152.161 119.227C145.124 126.709 135.831 131.259 125.643 131.259C124.957 131.259 124.273 131.238 123.595 131.197C122.768 134.992 122.328 138.972 122.328 143.073C122.328 165.091 135.005 183.592 152.161 188.837C169.317 183.592 181.994 165.091 181.994 143.073C181.994 138.972 181.555 134.992 180.727 131.198ZM132.273 49.6171C132.273 71.5855 114.463 89.3943 92.4954 89.3943C70.5271 89.3943 52.7182 71.5855 52.7182 49.6171C52.7182 27.6487 70.5271 9.83984 92.4954 9.83984C114.463 9.83984 132.273 27.6487 132.273 49.6171Z" stroke="black" stroke-width="19.8886" stroke-linecap="round" stroke-linejoin="round"/>
</g>
<defs>
<clipPath id="clip0_58_139">
<rect width="202.864" height="200" fill="white" transform="translate(0.768066 0.0561523)"/>
</clipPath>
</defs>
</svg>
