<svg width="200" height="200" viewBox="0 0 200 200" fill="none" xmlns="http://www.w3.org/2000/svg">
<path d="M154.562 1.92232C149.999 1.89107 145.515 3.51606 142.062 6.96919L134.374 14.9067L185.093 65.8598L192.78 57.9379C199.733 50.9848 199.796 39.7192 192.78 32.6879L167.312 7.21919C163.796 3.70356 159.14 1.95357 154.562 1.92232ZM125.718 21.8754L113.702 33.4067L166.593 86.2973L178.843 75.0004L125.718 21.8754ZM106.015 41.8286L22.8428 124.282C20.9053 125.266 19.5303 127.016 18.9834 129.094L1.20216 189.422C0.389658 192.063 1.10841 194.985 3.06153 196.938C5.01466 198.891 7.93653 199.61 10.5772 198.797L70.9053 181.016C73.7022 180.594 76.0147 178.641 76.9209 175.969L158.89 94.7192L147.593 83.4067L63.4678 167.782L29.5615 177.641L22.3584 170.438L32.6865 135.094L116.108 51.9223L106.015 41.8286ZM124.28 60.3442L39.9053 144.954L52.1553 147.594L53.8428 158.891L138.468 74.5161L124.28 60.3442Z" fill="black"/>
</svg>
