<?xml version="1.0" encoding="UTF-8"?>
<svg xmlns="http://www.w3.org/2000/svg" xmlns:xlink="http://www.w3.org/1999/xlink" width="50px" height="50px" viewBox="0 0 50 50" version="1.1">
<g id="surface1">
<path style=" stroke:none;fill-rule:nonzero;fill:rgb(0%,0%,0%);fill-opacity:1;" d="M 38.640625 0.480469 C 37.5 0.472656 36.378906 0.878906 35.515625 1.742188 L 33.59375 3.726562 L 46.273438 16.464844 L 48.195312 14.484375 C 49.933594 12.746094 49.949219 9.929688 48.195312 8.171875 L 41.828125 1.804688 C 40.949219 0.925781 39.785156 0.488281 38.640625 0.480469 Z M 31.429688 5.46875 L 28.425781 8.351562 L 41.648438 21.574219 L 44.710938 18.75 Z M 26.503906 10.457031 L 5.710938 31.070312 C 5.226562 31.316406 4.882812 31.753906 4.746094 32.273438 L 0.300781 47.355469 C 0.0976562 48.015625 0.277344 48.746094 0.765625 49.234375 C 1.253906 49.722656 1.984375 49.902344 2.644531 49.699219 L 17.726562 45.253906 C 18.425781 45.148438 19.003906 44.660156 19.230469 43.992188 L 39.722656 23.679688 L 36.898438 20.851562 L 15.867188 41.945312 L 7.390625 44.410156 L 5.589844 42.609375 L 8.171875 33.773438 L 29.027344 12.980469 Z M 31.070312 15.085938 L 9.976562 36.238281 L 13.039062 36.898438 L 13.460938 39.722656 L 34.617188 18.628906 Z M 31.070312 15.085938 "/>
</g>
</svg>
